G04 #@! TF.FileFunction,Soldermask,Bot*
%FSLAX46Y46*%
G04 Gerber Fmt 4.6, Leading zero omitted, Abs format (unit mm)*
G04 Created by KiCad (PCBNEW 4.0.6) date Mon May 20 15:12:23 2019*
%MOMM*%
%LPD*%
G01*
G04 APERTURE LIST*
%ADD10C,0.100000*%
%ADD11C,1.924000*%
%ADD12R,2.800000X2.000000*%
%ADD13O,2.800000X2.000000*%
%ADD14R,2.000000X2.800000*%
%ADD15O,2.000000X2.800000*%
%ADD16C,2.900000*%
%ADD17C,2.400000*%
%ADD18R,2.400000X2.400000*%
%ADD19O,2.400000X2.400000*%
%ADD20R,2.400000X1.470000*%
%ADD21O,2.400000X1.470000*%
%ADD22O,2.500000X2.500000*%
G04 APERTURE END LIST*
D10*
D11*
X196000000Y-125000000D03*
X137000000Y-176000000D03*
X201000000Y-56000000D03*
X121000000Y-87000000D03*
X127000000Y-148000000D03*
X227000000Y-101000000D03*
X103000000Y-142000000D03*
D12*
X241220000Y-198000000D03*
D13*
X248840000Y-215780000D03*
X241220000Y-200540000D03*
X248840000Y-213240000D03*
X241220000Y-203080000D03*
X248840000Y-210700000D03*
X241220000Y-205620000D03*
X248840000Y-208160000D03*
X241220000Y-208160000D03*
X248840000Y-205620000D03*
X241220000Y-210700000D03*
X248840000Y-203080000D03*
X241220000Y-213240000D03*
X248840000Y-200540000D03*
X241220000Y-215780000D03*
X248840000Y-198000000D03*
D12*
X157000000Y-204000000D03*
D13*
X164620000Y-221780000D03*
X157000000Y-206540000D03*
X164620000Y-219240000D03*
X157000000Y-209080000D03*
X164620000Y-216700000D03*
X157000000Y-211620000D03*
X164620000Y-214160000D03*
X157000000Y-214160000D03*
X164620000Y-211620000D03*
X157000000Y-216700000D03*
X164620000Y-209080000D03*
X157000000Y-219240000D03*
X164620000Y-206540000D03*
X157000000Y-221780000D03*
X164620000Y-204000000D03*
D12*
X69850000Y-192000000D03*
D13*
X77470000Y-209780000D03*
X69850000Y-194540000D03*
X77470000Y-207240000D03*
X69850000Y-197080000D03*
X77470000Y-204700000D03*
X69850000Y-199620000D03*
X77470000Y-202160000D03*
X69850000Y-202160000D03*
X77470000Y-199620000D03*
X69850000Y-204700000D03*
X77470000Y-197080000D03*
X69850000Y-207240000D03*
X77470000Y-194540000D03*
X69850000Y-209780000D03*
X77470000Y-192000000D03*
D12*
X232000000Y-157000000D03*
D13*
X239620000Y-174780000D03*
X232000000Y-159540000D03*
X239620000Y-172240000D03*
X232000000Y-162080000D03*
X239620000Y-169700000D03*
X232000000Y-164620000D03*
X239620000Y-167160000D03*
X232000000Y-167160000D03*
X239620000Y-164620000D03*
X232000000Y-169700000D03*
X239620000Y-162080000D03*
X232000000Y-172240000D03*
X239620000Y-159540000D03*
X232000000Y-174780000D03*
X239620000Y-157000000D03*
D12*
X232000000Y-115000000D03*
D13*
X239620000Y-132780000D03*
X232000000Y-117540000D03*
X239620000Y-130240000D03*
X232000000Y-120080000D03*
X239620000Y-127700000D03*
X232000000Y-122620000D03*
X239620000Y-125160000D03*
X232000000Y-125160000D03*
X239620000Y-122620000D03*
X232000000Y-127700000D03*
X239620000Y-120080000D03*
X232000000Y-130240000D03*
X239620000Y-117540000D03*
X232000000Y-132780000D03*
X239620000Y-115000000D03*
D12*
X232000000Y-71000000D03*
D13*
X239620000Y-88780000D03*
X232000000Y-73540000D03*
X239620000Y-86240000D03*
X232000000Y-76080000D03*
X239620000Y-83700000D03*
X232000000Y-78620000D03*
X239620000Y-81160000D03*
X232000000Y-81160000D03*
X239620000Y-78620000D03*
X232000000Y-83700000D03*
X239620000Y-76080000D03*
X232000000Y-86240000D03*
X239620000Y-73540000D03*
X232000000Y-88780000D03*
X239620000Y-71000000D03*
D14*
X152000000Y-190000000D03*
D15*
X169780000Y-182380000D03*
X154540000Y-190000000D03*
X167240000Y-182380000D03*
X157080000Y-190000000D03*
X164700000Y-182380000D03*
X159620000Y-190000000D03*
X162160000Y-182380000D03*
X162160000Y-190000000D03*
X159620000Y-182380000D03*
X164700000Y-190000000D03*
X157080000Y-182380000D03*
X167240000Y-190000000D03*
X154540000Y-182380000D03*
X169780000Y-190000000D03*
X152000000Y-182380000D03*
D14*
X170000000Y-48000000D03*
D15*
X152220000Y-55620000D03*
X167460000Y-48000000D03*
X154760000Y-55620000D03*
X164920000Y-48000000D03*
X157300000Y-55620000D03*
X162380000Y-48000000D03*
X159840000Y-55620000D03*
X159840000Y-48000000D03*
X162380000Y-55620000D03*
X157300000Y-48000000D03*
X164920000Y-55620000D03*
X154760000Y-48000000D03*
X167460000Y-55620000D03*
X152220000Y-48000000D03*
X170000000Y-55620000D03*
D12*
X87000000Y-157000000D03*
D13*
X94620000Y-174780000D03*
X87000000Y-159540000D03*
X94620000Y-172240000D03*
X87000000Y-162080000D03*
X94620000Y-169700000D03*
X87000000Y-164620000D03*
X94620000Y-167160000D03*
X87000000Y-167160000D03*
X94620000Y-164620000D03*
X87000000Y-169700000D03*
X94620000Y-162080000D03*
X87000000Y-172240000D03*
X94620000Y-159540000D03*
X87000000Y-174780000D03*
X94620000Y-157000000D03*
D12*
X87000000Y-115000000D03*
D13*
X94620000Y-132780000D03*
X87000000Y-117540000D03*
X94620000Y-130240000D03*
X87000000Y-120080000D03*
X94620000Y-127700000D03*
X87000000Y-122620000D03*
X94620000Y-125160000D03*
X87000000Y-125160000D03*
X94620000Y-122620000D03*
X87000000Y-127700000D03*
X94620000Y-120080000D03*
X87000000Y-130240000D03*
X94620000Y-117540000D03*
X87000000Y-132780000D03*
X94620000Y-115000000D03*
D12*
X87000000Y-71000000D03*
D13*
X94620000Y-88780000D03*
X87000000Y-73540000D03*
X94620000Y-86240000D03*
X87000000Y-76080000D03*
X94620000Y-83700000D03*
X87000000Y-78620000D03*
X94620000Y-81160000D03*
X87000000Y-81160000D03*
X94620000Y-78620000D03*
X87000000Y-83700000D03*
X94620000Y-76080000D03*
X87000000Y-86240000D03*
X94620000Y-73540000D03*
X87000000Y-88780000D03*
X94620000Y-71000000D03*
D16*
X120920000Y-207000000D03*
X120920000Y-202000000D03*
X128420000Y-207000000D03*
X128420000Y-202000000D03*
X223330000Y-228000000D03*
X223330000Y-223000000D03*
X230830000Y-228000000D03*
X230830000Y-223000000D03*
X209360000Y-228000000D03*
X209360000Y-223000000D03*
X216860000Y-228000000D03*
X216860000Y-223000000D03*
X195390000Y-228000000D03*
X195390000Y-223000000D03*
X202890000Y-228000000D03*
X202890000Y-223000000D03*
X181420000Y-228000000D03*
X181420000Y-223000000D03*
X188920000Y-228000000D03*
X188920000Y-223000000D03*
X101950000Y-207000000D03*
X101950000Y-202000000D03*
X109450000Y-207000000D03*
X109450000Y-202000000D03*
X137970000Y-228000000D03*
X137970000Y-223000000D03*
X145470000Y-228000000D03*
X145470000Y-223000000D03*
X121000000Y-228000000D03*
X121000000Y-223000000D03*
X128500000Y-228000000D03*
X128500000Y-223000000D03*
X102030000Y-228000000D03*
X102030000Y-223000000D03*
X109530000Y-228000000D03*
X109530000Y-223000000D03*
X84060000Y-228000000D03*
X84060000Y-223000000D03*
X91560000Y-228000000D03*
X91560000Y-223000000D03*
X206000000Y-170000000D03*
X201000000Y-170000000D03*
X206000000Y-162500000D03*
X201000000Y-162500000D03*
X206000000Y-140000000D03*
X201000000Y-140000000D03*
X206000000Y-132500000D03*
X201000000Y-132500000D03*
X206000000Y-110000000D03*
X201000000Y-110000000D03*
X206000000Y-102500000D03*
X201000000Y-102500000D03*
X206000000Y-80000000D03*
X201000000Y-80000000D03*
X206000000Y-72500000D03*
X201000000Y-72500000D03*
X176000000Y-170000000D03*
X171000000Y-170000000D03*
X176000000Y-162500000D03*
X171000000Y-162500000D03*
X176000000Y-140000000D03*
X171000000Y-140000000D03*
X176000000Y-132500000D03*
X171000000Y-132500000D03*
X176000000Y-110000000D03*
X171000000Y-110000000D03*
X176000000Y-102500000D03*
X171000000Y-102500000D03*
X176000000Y-80000000D03*
X171000000Y-80000000D03*
X176000000Y-72500000D03*
X171000000Y-72500000D03*
X146000000Y-170000000D03*
X141000000Y-170000000D03*
X146000000Y-162500000D03*
X141000000Y-162500000D03*
X146000000Y-140000000D03*
X141000000Y-140000000D03*
X146000000Y-132500000D03*
X141000000Y-132500000D03*
X146000000Y-110000000D03*
X141000000Y-110000000D03*
X146000000Y-102500000D03*
X141000000Y-102500000D03*
X146000000Y-80000000D03*
X141000000Y-80000000D03*
X146000000Y-72500000D03*
X141000000Y-72500000D03*
X116000000Y-170000000D03*
X111000000Y-170000000D03*
X116000000Y-162500000D03*
X111000000Y-162500000D03*
X116000000Y-140000000D03*
X111000000Y-140000000D03*
X116000000Y-132500000D03*
X111000000Y-132500000D03*
X116000000Y-110000000D03*
X111000000Y-110000000D03*
X116000000Y-102500000D03*
X111000000Y-102500000D03*
D17*
X239080000Y-149000000D03*
D18*
X234000000Y-149000000D03*
D17*
X236540000Y-149000000D03*
X239080000Y-107000000D03*
D18*
X234000000Y-107000000D03*
D17*
X236540000Y-107000000D03*
X239080000Y-63000000D03*
D18*
X234000000Y-63000000D03*
D17*
X236540000Y-63000000D03*
X93080000Y-149000000D03*
D18*
X88000000Y-149000000D03*
D17*
X90540000Y-149000000D03*
X93080000Y-107000000D03*
D18*
X88000000Y-107000000D03*
D17*
X90540000Y-107000000D03*
X93080000Y-63000000D03*
D18*
X88000000Y-63000000D03*
D17*
X90540000Y-63000000D03*
X120920000Y-197390000D03*
D19*
X128540000Y-197390000D03*
D17*
X223330000Y-218000000D03*
D19*
X230950000Y-218000000D03*
D17*
X209360000Y-218000000D03*
D19*
X216980000Y-218000000D03*
D17*
X195390000Y-218000000D03*
D19*
X203010000Y-218000000D03*
D17*
X181420000Y-218000000D03*
D19*
X189040000Y-218000000D03*
D17*
X101950000Y-197390000D03*
D19*
X109570000Y-197390000D03*
D17*
X137970000Y-218000000D03*
D19*
X145590000Y-218000000D03*
D17*
X121000000Y-218000000D03*
D19*
X128620000Y-218000000D03*
D17*
X102030000Y-218000000D03*
D19*
X109650000Y-218000000D03*
D17*
X84060000Y-218000000D03*
D19*
X91680000Y-218000000D03*
D17*
X213000000Y-170000000D03*
D19*
X213000000Y-162380000D03*
D17*
X213000000Y-140000000D03*
D19*
X213000000Y-132380000D03*
D17*
X213000000Y-110000000D03*
D19*
X213000000Y-102380000D03*
D17*
X213000000Y-80000000D03*
D19*
X213000000Y-72380000D03*
D17*
X183000000Y-170000000D03*
D19*
X183000000Y-162380000D03*
D17*
X183000000Y-140000000D03*
D19*
X183000000Y-132380000D03*
D17*
X183000000Y-110000000D03*
D19*
X183000000Y-102380000D03*
D17*
X183000000Y-80000000D03*
D19*
X183000000Y-72380000D03*
D17*
X153000000Y-170000000D03*
D19*
X153000000Y-162380000D03*
D17*
X153000000Y-140000000D03*
D19*
X153000000Y-132380000D03*
D17*
X153000000Y-110000000D03*
D19*
X153000000Y-102380000D03*
D17*
X153000000Y-80000000D03*
D19*
X153000000Y-72380000D03*
D17*
X123000000Y-170000000D03*
D19*
X123000000Y-162380000D03*
D17*
X123000000Y-140000000D03*
D19*
X123000000Y-132380000D03*
D17*
X123000000Y-110000000D03*
D19*
X123000000Y-102380000D03*
D17*
X123000000Y-80000000D03*
D19*
X123000000Y-72380000D03*
D18*
X226000000Y-207000000D03*
D17*
X228540000Y-207000000D03*
D18*
X212000000Y-207000000D03*
D17*
X214540000Y-207000000D03*
D18*
X198000000Y-207000000D03*
D17*
X200540000Y-207000000D03*
D18*
X184000000Y-207000000D03*
D17*
X186540000Y-207000000D03*
D18*
X226000000Y-194000000D03*
D17*
X228540000Y-194000000D03*
D18*
X212000000Y-194000000D03*
D17*
X214540000Y-194000000D03*
D18*
X198000000Y-194000000D03*
D17*
X200540000Y-194000000D03*
D18*
X184000000Y-194000000D03*
D17*
X186540000Y-194000000D03*
D20*
X203000000Y-157000000D03*
D21*
X203000000Y-155730000D03*
X203000000Y-154460000D03*
X203000000Y-153190000D03*
D20*
X203000000Y-127000000D03*
D21*
X203000000Y-125730000D03*
X203000000Y-124460000D03*
X203000000Y-123190000D03*
D20*
X203000000Y-97000000D03*
D21*
X203000000Y-95730000D03*
X203000000Y-94460000D03*
X203000000Y-93190000D03*
D20*
X203000000Y-67000000D03*
D21*
X203000000Y-65730000D03*
X203000000Y-64460000D03*
X203000000Y-63190000D03*
D20*
X173000000Y-157000000D03*
D21*
X173000000Y-155730000D03*
X173000000Y-154460000D03*
X173000000Y-153190000D03*
D20*
X173000000Y-127000000D03*
D21*
X173000000Y-125730000D03*
X173000000Y-124460000D03*
X173000000Y-123190000D03*
D20*
X173000000Y-97000000D03*
D21*
X173000000Y-95730000D03*
X173000000Y-94460000D03*
X173000000Y-93190000D03*
D20*
X173000000Y-67000000D03*
D21*
X173000000Y-65730000D03*
X173000000Y-64460000D03*
X173000000Y-63190000D03*
D20*
X143000000Y-157000000D03*
D21*
X143000000Y-155730000D03*
X143000000Y-154460000D03*
X143000000Y-153190000D03*
D20*
X143000000Y-127000000D03*
D21*
X143000000Y-125730000D03*
X143000000Y-124460000D03*
X143000000Y-123190000D03*
D20*
X143000000Y-97000000D03*
D21*
X143000000Y-95730000D03*
X143000000Y-94460000D03*
X143000000Y-93190000D03*
D20*
X143000000Y-67000000D03*
D21*
X143000000Y-65730000D03*
X143000000Y-64460000D03*
X143000000Y-63190000D03*
D20*
X113000000Y-157000000D03*
D21*
X113000000Y-155730000D03*
X113000000Y-154460000D03*
X113000000Y-153190000D03*
D20*
X113000000Y-127000000D03*
D21*
X113000000Y-125730000D03*
X113000000Y-124460000D03*
X113000000Y-123190000D03*
D20*
X113000000Y-97000000D03*
D21*
X113000000Y-95730000D03*
X113000000Y-94460000D03*
X113000000Y-93190000D03*
D20*
X113000000Y-67000000D03*
D21*
X113000000Y-65730000D03*
X113000000Y-64460000D03*
X113000000Y-63190000D03*
D16*
X116000000Y-80000000D03*
X111000000Y-80000000D03*
X116000000Y-72500000D03*
X111000000Y-72500000D03*
D17*
X248080000Y-190000000D03*
D18*
X243000000Y-190000000D03*
D17*
X245540000Y-190000000D03*
D18*
X69850000Y-53340000D03*
D22*
X72390000Y-53340000D03*
X69850000Y-55880000D03*
X72390000Y-55880000D03*
X69850000Y-58420000D03*
X72390000Y-58420000D03*
X69850000Y-60960000D03*
X72390000Y-60960000D03*
X69850000Y-63500000D03*
X72390000Y-63500000D03*
X69850000Y-66040000D03*
X72390000Y-66040000D03*
X69850000Y-68580000D03*
X72390000Y-68580000D03*
X69850000Y-71120000D03*
X72390000Y-71120000D03*
X69850000Y-73660000D03*
X72390000Y-73660000D03*
X69850000Y-76200000D03*
X72390000Y-76200000D03*
X69850000Y-78740000D03*
X72390000Y-78740000D03*
X69850000Y-81280000D03*
X72390000Y-81280000D03*
X69850000Y-83820000D03*
X72390000Y-83820000D03*
X69850000Y-86360000D03*
X72390000Y-86360000D03*
X69850000Y-88900000D03*
X72390000Y-88900000D03*
X69850000Y-91440000D03*
X72390000Y-91440000D03*
X69850000Y-93980000D03*
X72390000Y-93980000D03*
X69850000Y-96520000D03*
X72390000Y-96520000D03*
X69850000Y-99060000D03*
X72390000Y-99060000D03*
X69850000Y-101600000D03*
X72390000Y-101600000D03*
D11*
X80000000Y-99000000D03*
X76000000Y-130000000D03*
M02*
