M48
;DRILL file {KiCad 4.0.6} date Mon May 20 15:41:38 2019
;FORMAT={-:-/ absolute / inch / decimal}
FMAT,2
INCH,TZ
T1C0.016
T2C0.024
T3C0.028
T4C0.030
T5C0.031
T6C0.035
T7C0.039
T8C0.043
%
G90
G05
M72
T1
X3.7823Y-4.096
X4.0321Y-3.1643
X4.2347Y-3.0141
X6.3917Y-2.6177
X6.8642Y-2.7072
X7.8758Y-8.0221
X7.9629Y-6.8599
X8.2958Y-6.1468
X8.3557Y-6.1753
X8.6679Y-4.1844
X9.3526Y-4.7905
X9.3594Y-7.883
T2
X3.4646Y-2.4803
X3.4646Y-4.2126
X3.4646Y-5.8661
X3.5646Y-2.4803
X3.5646Y-4.2126
X3.5646Y-5.8661
X3.6646Y-2.4803
X3.6646Y-4.2126
X3.6646Y-5.8661
X9.2126Y-2.4803
X9.2126Y-4.2126
X9.2126Y-5.8661
X9.3126Y-2.4803
X9.3126Y-4.2126
X9.3126Y-5.8661
X9.4126Y-2.4803
X9.4126Y-4.2126
X9.4126Y-5.8661
T3
X3.3094Y-8.5827
X3.6094Y-8.5827
X4.0138Y-7.7713
X4.0169Y-8.5827
X4.3138Y-7.7713
X4.3169Y-8.5827
X4.7606Y-7.7713
X4.7638Y-8.5827
X4.8425Y-2.8496
X4.8425Y-3.1496
X4.8425Y-4.0307
X4.8425Y-4.3307
X4.8425Y-5.2118
X4.8425Y-5.5118
X4.8425Y-6.3929
X4.8425Y-6.6929
X5.0606Y-7.7713
X5.0638Y-8.5827
X5.4319Y-8.5827
X5.7319Y-8.5827
X6.0236Y-2.8496
X6.0236Y-3.1496
X6.0236Y-4.0307
X6.0236Y-4.3307
X6.0236Y-5.2118
X6.0236Y-5.5118
X6.0236Y-6.3929
X6.0236Y-6.6929
X7.1425Y-8.5827
X7.2047Y-2.8496
X7.2047Y-3.1496
X7.2047Y-4.0307
X7.2047Y-4.3307
X7.2047Y-5.2118
X7.2047Y-5.5118
X7.2047Y-6.3929
X7.2047Y-6.6929
X7.4425Y-8.5827
X7.6925Y-8.5827
X7.9925Y-8.5827
X8.2425Y-8.5827
X8.3858Y-2.8496
X8.3858Y-3.1496
X8.3858Y-4.0307
X8.3858Y-4.3307
X8.3858Y-5.2118
X8.3858Y-5.5118
X8.3858Y-6.3929
X8.3858Y-6.6929
X8.5425Y-8.5827
X8.7925Y-8.5827
X9.0925Y-8.5827
X9.5669Y-7.4803
X9.6669Y-7.4803
X9.7669Y-7.4803
T4
X2.9921Y-5.1181
X3.1496Y-3.8976
X4.0551Y-5.5906
X4.7638Y-3.4252
X5.Y-5.8268
X5.3937Y-6.9291
X7.7165Y-4.9213
X7.9134Y-2.2047
X8.937Y-3.9764
T5
X2.75Y-7.5591
X2.75Y-7.6591
X2.75Y-7.7591
X2.75Y-7.8591
X2.75Y-7.9591
X2.75Y-8.0591
X2.75Y-8.1591
X2.75Y-8.2591
X3.05Y-7.5591
X3.05Y-7.6591
X3.05Y-7.7591
X3.05Y-7.8591
X3.05Y-7.9591
X3.05Y-8.0591
X3.05Y-8.1591
X3.05Y-8.2591
X3.4252Y-2.7953
X3.4252Y-2.8953
X3.4252Y-2.9953
X3.4252Y-3.0953
X3.4252Y-3.1953
X3.4252Y-3.2953
X3.4252Y-3.3953
X3.4252Y-3.4953
X3.4252Y-4.5276
X3.4252Y-4.6276
X3.4252Y-4.7276
X3.4252Y-4.8276
X3.4252Y-4.9276
X3.4252Y-5.0276
X3.4252Y-5.1276
X3.4252Y-5.2276
X3.4252Y-6.1811
X3.4252Y-6.2811
X3.4252Y-6.3811
X3.4252Y-6.4811
X3.4252Y-6.5811
X3.4252Y-6.6811
X3.4252Y-6.7811
X3.4252Y-6.8811
X3.7252Y-2.7953
X3.7252Y-2.8953
X3.7252Y-2.9953
X3.7252Y-3.0953
X3.7252Y-3.1953
X3.7252Y-3.2953
X3.7252Y-3.3953
X3.7252Y-3.4953
X3.7252Y-4.5276
X3.7252Y-4.6276
X3.7252Y-4.7276
X3.7252Y-4.8276
X3.7252Y-4.9276
X3.7252Y-5.0276
X3.7252Y-5.1276
X3.7252Y-5.2276
X3.7252Y-6.1811
X3.7252Y-6.2811
X3.7252Y-6.3811
X3.7252Y-6.4811
X3.7252Y-6.5811
X3.7252Y-6.6811
X3.7252Y-6.7811
X3.7252Y-6.8811
X5.9843Y-7.1803
X5.9843Y-7.4803
X5.9929Y-1.8898
X5.9929Y-2.1898
X6.0843Y-7.1803
X6.0843Y-7.4803
X6.0929Y-1.8898
X6.0929Y-2.1898
X6.1811Y-8.0315
X6.1811Y-8.1315
X6.1811Y-8.2315
X6.1811Y-8.3315
X6.1811Y-8.4315
X6.1811Y-8.5315
X6.1811Y-8.6315
X6.1811Y-8.7315
X6.1843Y-7.1803
X6.1843Y-7.4803
X6.1929Y-1.8898
X6.1929Y-2.1898
X6.2843Y-7.1803
X6.2843Y-7.4803
X6.2929Y-1.8898
X6.2929Y-2.1898
X6.3843Y-7.1803
X6.3843Y-7.4803
X6.3929Y-1.8898
X6.3929Y-2.1898
X6.4811Y-8.0315
X6.4811Y-8.1315
X6.4811Y-8.2315
X6.4811Y-8.3315
X6.4811Y-8.4315
X6.4811Y-8.5315
X6.4811Y-8.6315
X6.4811Y-8.7315
X6.4843Y-7.1803
X6.4843Y-7.4803
X6.4929Y-1.8898
X6.4929Y-2.1898
X6.5843Y-7.1803
X6.5843Y-7.4803
X6.5929Y-1.8898
X6.5929Y-2.1898
X6.6843Y-7.1803
X6.6843Y-7.4803
X6.6929Y-1.8898
X6.6929Y-2.1898
X9.1339Y-2.7953
X9.1339Y-2.8953
X9.1339Y-2.9953
X9.1339Y-3.0953
X9.1339Y-3.1953
X9.1339Y-3.2953
X9.1339Y-3.3953
X9.1339Y-3.4953
X9.1339Y-4.5276
X9.1339Y-4.6276
X9.1339Y-4.7276
X9.1339Y-4.8276
X9.1339Y-4.9276
X9.1339Y-5.0276
X9.1339Y-5.1276
X9.1339Y-5.2276
X9.1339Y-6.1811
X9.1339Y-6.2811
X9.1339Y-6.3811
X9.1339Y-6.4811
X9.1339Y-6.5811
X9.1339Y-6.6811
X9.1339Y-6.7811
X9.1339Y-6.8811
X9.4339Y-2.7953
X9.4339Y-2.8953
X9.4339Y-2.9953
X9.4339Y-3.0953
X9.4339Y-3.1953
X9.4339Y-3.2953
X9.4339Y-3.3953
X9.4339Y-3.4953
X9.4339Y-4.5276
X9.4339Y-4.6276
X9.4339Y-4.7276
X9.4339Y-4.8276
X9.4339Y-4.9276
X9.4339Y-5.0276
X9.4339Y-5.1276
X9.4339Y-5.2276
X9.4339Y-6.1811
X9.4339Y-6.2811
X9.4339Y-6.3811
X9.4339Y-6.4811
X9.4339Y-6.5811
X9.4339Y-6.6811
X9.4339Y-6.7811
X9.4339Y-6.8811
X9.4969Y-7.7953
X9.4969Y-7.8953
X9.4969Y-7.9953
X9.4969Y-8.0953
X9.4969Y-8.1953
X9.4969Y-8.2953
X9.4969Y-8.3953
X9.4969Y-8.4953
X9.7969Y-7.7953
X9.7969Y-7.8953
X9.7969Y-7.9953
X9.7969Y-8.0953
X9.7969Y-8.1953
X9.7969Y-8.2953
X9.7969Y-8.3953
X9.7969Y-8.4953
T6
X4.4488Y-2.4878
X4.4488Y-2.5378
X4.4488Y-2.5878
X4.4488Y-2.6378
X4.4488Y-3.6689
X4.4488Y-3.7189
X4.4488Y-3.7689
X4.4488Y-3.8189
X4.4488Y-4.85
X4.4488Y-4.9
X4.4488Y-4.95
X4.4488Y-5.
X4.4488Y-6.0311
X4.4488Y-6.0811
X4.4488Y-6.1311
X4.4488Y-6.1811
X5.6299Y-2.4878
X5.6299Y-2.5378
X5.6299Y-2.5878
X5.6299Y-2.6378
X5.6299Y-3.6689
X5.6299Y-3.7189
X5.6299Y-3.7689
X5.6299Y-3.8189
X5.6299Y-4.85
X5.6299Y-4.9
X5.6299Y-4.95
X5.6299Y-5.
X5.6299Y-6.0311
X5.6299Y-6.0811
X5.6299Y-6.1311
X5.6299Y-6.1811
X6.811Y-2.4878
X6.811Y-2.5378
X6.811Y-2.5878
X6.811Y-2.6378
X6.811Y-3.6689
X6.811Y-3.7189
X6.811Y-3.7689
X6.811Y-3.8189
X6.811Y-4.85
X6.811Y-4.9
X6.811Y-4.95
X6.811Y-5.
X6.811Y-6.0311
X6.811Y-6.0811
X6.811Y-6.1311
X6.811Y-6.1811
X7.2441Y-7.6378
X7.2441Y-8.1496
X7.3441Y-7.6378
X7.3441Y-8.1496
X7.7953Y-7.6378
X7.7953Y-8.1496
X7.8953Y-7.6378
X7.8953Y-8.1496
X7.9921Y-2.4878
X7.9921Y-2.5378
X7.9921Y-2.5878
X7.9921Y-2.6378
X7.9921Y-3.6689
X7.9921Y-3.7189
X7.9921Y-3.7689
X7.9921Y-3.8189
X7.9921Y-4.85
X7.9921Y-4.9
X7.9921Y-4.95
X7.9921Y-5.
X7.9921Y-6.0311
X7.9921Y-6.0811
X7.9921Y-6.1311
X7.9921Y-6.1811
X8.3465Y-7.6378
X8.3465Y-8.1496
X8.4465Y-7.6378
X8.4465Y-8.1496
X8.8976Y-7.6378
X8.8976Y-8.1496
X8.9976Y-7.6378
X8.9976Y-8.1496
T7
X2.75Y-2.1
X2.75Y-2.2
X2.75Y-2.3
X2.75Y-2.4
X2.75Y-2.5
X2.75Y-2.6
X2.75Y-2.7
X2.75Y-2.8
X2.75Y-2.9
X2.75Y-3.
X2.75Y-3.1
X2.75Y-3.2
X2.75Y-3.3
X2.75Y-3.4
X2.75Y-3.5
X2.75Y-3.6
X2.75Y-3.7
X2.75Y-3.8
X2.75Y-3.9
X2.75Y-4.
X2.85Y-2.1
X2.85Y-2.2
X2.85Y-2.3
X2.85Y-2.4
X2.85Y-2.5
X2.85Y-2.6
X2.85Y-2.7
X2.85Y-2.8
X2.85Y-2.9
X2.85Y-3.
X2.85Y-3.1
X2.85Y-3.2
X2.85Y-3.3
X2.85Y-3.4
X2.85Y-3.5
X2.85Y-3.6
X2.85Y-3.7
X2.85Y-3.8
X2.85Y-3.9
X2.85Y-4.
T8
X3.3094Y-8.7795
X3.3094Y-8.9764
X3.6047Y-8.7795
X3.6047Y-8.9764
X4.0138Y-7.9528
X4.0138Y-8.1496
X4.0169Y-8.7795
X4.0169Y-8.9764
X4.3091Y-7.9528
X4.3091Y-8.1496
X4.3122Y-8.7795
X4.3122Y-8.9764
X4.3701Y-2.8543
X4.3701Y-3.1496
X4.3701Y-4.0354
X4.3701Y-4.3307
X4.3701Y-5.2165
X4.3701Y-5.5118
X4.3701Y-6.3976
X4.3701Y-6.6929
X4.5669Y-2.8543
X4.5669Y-3.1496
X4.5669Y-4.0354
X4.5669Y-4.3307
X4.5669Y-5.2165
X4.5669Y-5.5118
X4.5669Y-6.3976
X4.5669Y-6.6929
X4.7606Y-7.9528
X4.7606Y-8.1496
X4.7638Y-8.7795
X4.7638Y-8.9764
X5.0559Y-7.9528
X5.0559Y-8.1496
X5.0591Y-8.7795
X5.0591Y-8.9764
X5.4319Y-8.7795
X5.4319Y-8.9764
X5.5512Y-2.8543
X5.5512Y-3.1496
X5.5512Y-4.0354
X5.5512Y-4.3307
X5.5512Y-5.2165
X5.5512Y-5.5118
X5.5512Y-6.3976
X5.5512Y-6.6929
X5.7272Y-8.7795
X5.7272Y-8.9764
X5.748Y-2.8543
X5.748Y-3.1496
X5.748Y-4.0354
X5.748Y-4.3307
X5.748Y-5.2165
X5.748Y-5.5118
X5.748Y-6.3976
X5.748Y-6.6929
X6.7323Y-2.8543
X6.7323Y-3.1496
X6.7323Y-4.0354
X6.7323Y-4.3307
X6.7323Y-5.2165
X6.7323Y-5.5118
X6.7323Y-6.3976
X6.7323Y-6.6929
X6.9291Y-2.8543
X6.9291Y-3.1496
X6.9291Y-4.0354
X6.9291Y-4.3307
X6.9291Y-5.2165
X6.9291Y-5.5118
X6.9291Y-6.3976
X6.9291Y-6.6929
X7.1425Y-8.7795
X7.1425Y-8.9764
X7.4378Y-8.7795
X7.4378Y-8.9764
X7.6925Y-8.7795
X7.6925Y-8.9764
X7.9134Y-2.8543
X7.9134Y-3.1496
X7.9134Y-4.0354
X7.9134Y-4.3307
X7.9134Y-5.2165
X7.9134Y-5.5118
X7.9134Y-6.3976
X7.9134Y-6.6929
X7.9878Y-8.7795
X7.9878Y-8.9764
X8.1102Y-2.8543
X8.1102Y-3.1496
X8.1102Y-4.0354
X8.1102Y-4.3307
X8.1102Y-5.2165
X8.1102Y-5.5118
X8.1102Y-6.3976
X8.1102Y-6.6929
X8.2425Y-8.7795
X8.2425Y-8.9764
X8.5378Y-8.7795
X8.5378Y-8.9764
X8.7925Y-8.7795
X8.7925Y-8.9764
X9.0878Y-8.7795
X9.0878Y-8.9764
T0
M30
